<svg width="80" height="78" xmlns="http://www.w3.org/2000/svg" xmlns:xlink="http://www.w3.org/1999/xlink" overflow="hidden"><defs><clipPath id="clip0"><rect x="1235" y="1705" width="80" height="78"/></clipPath></defs><g clip-path="url(#clip0)" transform="translate(-1235 -1705)"><path d="M1284.01 1750.61C1285.72 1742.24 1293.9 1736.84 1302.28 1738.56 1310.65 1740.27 1316.05 1748.45 1314.33 1756.83 1312.62 1765.2 1304.44 1770.6 1296.06 1768.88 1287.69 1767.17 1282.29 1758.99 1284.01 1750.61Z" fill="#00599D" fill-rule="evenodd"/><path d="M1285.66 1764.96 1252.53 1769.15 1281.56 1752.65Z" fill="#00599D" fill-rule="evenodd"/><path d="M1256.41 1730.79C1251.07 1724.11 1252.16 1714.37 1258.84 1709.03 1265.52 1703.7 1275.26 1704.78 1280.6 1711.46 1285.93 1718.14 1284.84 1727.89 1278.16 1733.22 1271.48 1738.56 1261.74 1737.47 1256.41 1730.79Z" fill="#00599D" fill-rule="evenodd"/><path d="M1268.5 1738.7 1250.51 1766.84 1256.41 1733.97Z" fill="#00599D" fill-rule="evenodd"/><path d="M1239.29 1776.43C1233.95 1769.75 1235.04 1760.01 1241.72 1754.67 1248.4 1749.34 1258.14 1750.43 1263.48 1757.11 1268.82 1763.79 1267.73 1773.53 1261.05 1778.86 1254.37 1784.2 1244.63 1783.11 1239.29 1776.43Z" fill="#00599D" fill-rule="evenodd"/></g></svg>