<svg width="78" height="78" xmlns="http://www.w3.org/2000/svg" xmlns:xlink="http://www.w3.org/1999/xlink" overflow="hidden"><defs><clipPath id="clip0"><rect x="1032" y="1712" width="78" height="78"/></clipPath></defs><g clip-path="url(#clip0)" transform="translate(-1032 -1712)"><path d="M1032 1751C1032 1729.46 1049.46 1712 1071 1712 1092.54 1712 1110 1729.46 1110 1751 1110 1772.54 1092.54 1790 1071 1790 1049.46 1790 1032 1772.54 1032 1751Z" fill="#00599D" fill-rule="evenodd"/><path d="M1066.23 1728 1076.51 1728 1076.51 1745.23 1093.87 1745.23 1093.87 1755.51 1076.51 1755.51 1076.51 1772.87 1066.23 1772.87 1066.23 1755.51 1049 1755.51 1049 1745.23 1066.23 1745.23 1066.23 1728" fill="#FFFFFF" fill-rule="evenodd"/></g></svg>